<?xml version="1.0" encoding="UTF-8"?>
<svg id="Layer_1" data-name="Layer 1" xmlns="http://www.w3.org/2000/svg" viewBox="0 0 479.49 405.09">
  <defs>
    <style>
      .cls-1 {
        fill: gold;
      }

      .cls-1, .cls-2, .cls-3 {
        stroke-width: 0px;
      }

      .cls-2 {
        fill: #6b8e23;
      }

      .cls-3 {
        fill: #fff;
      }
    </style>
  </defs>
  <path class="cls-3" d="M-16.21,119.25c.04-.36.87-.34,1.2-.37,3.17-.3,6.35-.58,9.52-.85,2.25-.19,4.51-.32,6.76-.53.58-.05,1.16-.24,1.71-.46.56-.23,1.04-.61,1.01-1.32-.03-.66-.46-1.06-1.04-1.2-1.19-.3-2.4-.67-3.61-.74-3.62-.21-7.24-.28-10.86-.41-1.46-.05-4.45-.05-4.46-.84,0-.79,2.48-.86,3.67-.93,3.64-.2,7.29-.3,10.93-.46.92-.04,1.85-.12,2.77-.22.35-.04.76-.11,1.01-.31.34-.28.71-.68.81-1.09.13-.55-.28-.99-.81-1.16-.66-.22-1.33-.43-2.01-.51-3.75-.45-7.5-.91-11.26-1.25-2.68-.24-5.39-.3-8.08-.4-.66-.02-1.33.11-1.99.24-2.22.44-3.76,1.7-4.48,3.89-.14.42-.27.83-.36,1.26-.42,1.96-.41,1.99-2.48,1.89-5.03-.25-10.06-.62-15.09-.8-6.51-.23-13.01.07-19.46,1.08-1.36.21-2.71.63-3.99,1.13-.74.28-1.44.82-1.99,1.4-1.29,1.35-1.12,3.36.47,4.34,1.09.67,2.38,1.23,3.63,1.35,2.75.27,5.55.45,8.3.27,6.41-.42,12.81-1.04,19.21-1.66,3.48-.33,6.94-.82,10.42-1.24.25-.03.51-.05.85-.08-.08.59-.15,1.14-.21,1.68-.24,2.29.57,3.82,2.79,4.41,1.76.47,3.65.7,5.48.68,5.16-.05,10.33-.23,15.49-.46,1.39-.06,2.77-.5,4.14-.81.31-.07.6-.3.85-.51.82-.73.68-1.75-.34-2.15-.56-.23-1.19-.35-1.8-.4-3.84-.36-7.69-.64-11.52-1.03-1.37-.14-2.72-.49-4.07-.79-.32-.07-1.15-.27-1.11-.63Z"/>
  <g>
    <g>
      <g>
        <g>
          <path class="cls-2" d="M165.18,45.97c-.2,4.76-1.31,9.11-4.85,12.48-.93.88-2.15,1.5-3.33,2.05-.43.2-1.36.04-1.61-.29-.31-.41-.34-1.23-.17-1.78.61-1.99,1.53-3.89,2.01-5.9.75-3.13-.07-6.14-1.41-8.97-1.03-2.18-2.28-4.26-3.41-6.4-2.27-4.29-4.63-8.58-4.38-13.65.37-7.4,3.75-13.34,9.24-18.16.85-.75,1.95-1.22,3.02-.43,1.13.83.76,1.98.27,2.99-1.7,3.49-3.34,7.06-3.12,10.99.14,2.53.8,5.09,1.64,7.5,1.59,4.62,3.58,9.1,5.17,13.72.63,1.84.63,3.89.92,5.84Z"/>
          <path class="cls-2" d="M80.15,71.04c-1.71,0-2.12-.86-1.59-2.2.66-1.68,1.45-3.35,1.85-5.1.72-3.13,0-6.14-1.41-8.96-1.58-3.14-3.26-6.24-4.91-9.34-5.74-10.76.3-21.04,6.16-26.13.9-.78,2-1.41,3.13-.51,1.03.82.54,1.9.13,2.87-.5,1.16-1.08,2.29-1.54,3.47-1.77,4.56-1.89,9.1.1,13.65,1.34,3.07,2.71,6.14,3.9,9.28,1.71,4.51,2.35,9.16,1.24,13.94-.7,3.03-2.09,5.69-4.58,7.63-.84.66-1.88,1.07-2.48,1.4Z"/>
          <path class="cls-2" d="M119.55,10.48c1.6-.05,2.36.89,2,2.21-.26.94-.72,1.84-1.14,2.73-2.59,5.43-2.84,10.84-.27,16.4,1.56,3.39,2.98,6.87,4.18,10.4,1.32,3.86,1.52,7.88.58,11.89-.66,2.8-1.9,5.3-4.11,7.19-.78.67-1.71,1.22-2.66,1.59-.51.2-1.44.09-1.77-.26-.31-.33-.3-1.29-.04-1.76,3.1-5.54,2.37-10.88-.62-16.17-1.3-2.3-2.62-4.59-3.76-6.97-4.06-8.49-2.82-16.81,3.48-23.83.77-.86,1.57-1.71,2.45-2.45.57-.48,1.3-.76,1.69-.98Z"/>
        </g>
        <g>
          <path class="cls-2" d="M314.82,41.46c.2,4.76,1.31,9.11,4.85,12.48.93.88,2.15,1.5,3.33,2.05.43.2,1.36.04,1.61-.29.31-.41.34-1.23.17-1.78-.61-1.99-1.53-3.89-2.01-5.9-.75-3.13.07-6.14,1.41-8.97,1.03-2.18,2.28-4.26,3.41-6.4,2.27-4.29,4.63-8.58,4.38-13.65-.37-7.4-3.75-13.34-9.24-18.16-.85-.75-1.95-1.22-3.02-.43-1.13.83-.76,1.98-.27,2.99,1.7,3.49,3.34,7.05,3.12,10.99-.14,2.53-.8,5.09-1.64,7.5-1.59,4.62-3.58,9.1-5.17,13.72-.63,1.84-.63,3.89-.92,5.84Z"/>
          <path class="cls-2" d="M399.85,66.52c1.71,0,2.12-.86,1.59-2.2-.66-1.68-1.45-3.35-1.85-5.1-.72-3.13,0-6.14,1.41-8.96,1.58-3.14,3.26-6.24,4.91-9.34,5.74-10.76-.3-21.04-6.16-26.13-.9-.78-2-1.41-3.13-.51-1.03.82-.54,1.9-.13,2.87.5,1.16,1.08,2.29,1.54,3.47,1.77,4.56,1.89,9.1-.1,13.65-1.34,3.07-2.71,6.14-3.9,9.28-1.71,4.51-2.35,9.16-1.24,13.94.7,3.03,2.09,5.69,4.58,7.63.84.66,1.88,1.07,2.48,1.4Z"/>
          <path class="cls-2" d="M360.45,5.96c-1.6-.05-2.36.89-2,2.21.26.94.72,1.84,1.14,2.73,2.59,5.43,2.84,10.84.27,16.4-1.56,3.39-2.98,6.87-4.18,10.4-1.32,3.86-1.52,7.88-.58,11.89.66,2.8,1.9,5.3,4.11,7.19.78.67,1.71,1.22,2.66,1.59.51.2,1.44.09,1.77-.26.31-.33.3-1.29.04-1.76-3.09-5.53-2.37-10.88.62-16.17,1.3-2.3,2.62-4.59,3.76-6.97,4.06-8.49,2.82-16.81-3.48-23.83-.77-.86-1.57-1.71-2.45-2.45-.57-.48-1.3-.76-1.69-.98Z"/>
        </g>
      </g>
      <g>
        <g>
          <g>
            <path class="cls-1" d="M0,291.86c.15-4.85,1.32-7.97,4.57-9.77,3.29-1.83,6.81-1.57,9.83.53,2.16,1.5,4.1,3.47,5.7,5.57,4.08,5.36,7.91,10.93,11.86,16.39,3.31,4.58,6.93,8.84,11.91,11.76.81.48,1.86,1.14,1.86,2.43s-2.06,1.32-3.07,1.28c-8.09-.24-15.55-2.88-22.87-6.16-7.8-3.49-13.71-8.96-17.76-16.41-1.12-2.07-1.63-4.47-2.03-5.62Z"/>
            <path class="cls-1" d="M7.14,372.16c.18-1.43.21-2.83.53-4.16,3.24-13.26,15.88-24.48,29.37-25.88,2.34-.24,4.84.11,7.15.67,2.35.57,2.5,2.13.64,3.62-.54.43-1.07.9-1.68,1.21-7.64,3.91-11.9,10.54-14.92,18.23-1.68,4.26-3.31,8.55-5.25,12.68-1.56,3.33-3.87,6.22-8.13,5.57-4.24-.64-6.2-3.79-7.16-7.62-.35-1.41-.37-2.9-.54-4.33Z"/>
          </g>
          <path class="cls-1" d="M28.12,330.97c.07,4.45-3.39,8.17-7.66,8.22-4.35.06-8.51-3.88-8.58-8.12-.08-4.35,3.64-8.11,8.08-8.18,4.43-.06,8.09,3.55,8.16,8.07Z"/>
        </g>
        <g>
          <g>
            <path class="cls-1" d="M469,290.78c-.61,1.95-.95,4.04-1.87,5.84-3.77,7.38-9.32,13.03-16.87,16.61-7.14,3.39-14.46,6.19-22.46,6.74-.69.05-4.41.8-4.84-1.26-.34-1.67.95-1.83,1.7-2.26,5.64-3.26,9.48-8.24,13.19-13.38,4.09-5.68,8.03-11.5,12.49-16.88,1.82-2.19,4.64-4.16,7.36-4.85,6.2-1.59,10.91,2.76,11.3,9.44Z"/>
            <path class="cls-1" d="M459.69,379.55c-.2.41-.42.82-.67,1.2-3.04,4.76-8.48,4.83-11.74.22-1.51-2.13-2.62-4.58-3.67-6.99-1.48-3.41-2.69-6.92-4.11-10.36-2.78-6.75-7.03-12.22-13.56-15.84-1.33-.74-3.73-1.71-3.28-3.51.45-1.8,3.09-2.02,4.7-2.16,7.67-.65,14.51,1.81,20.5,6.53,5.62,4.43,9.72,10.08,12.31,16.73.2.52.37,1.06.52,1.62,1.11,4.17.89,8.67-1,12.55Z"/>
          </g>
          <path class="cls-1" d="M448.6,322.9c4.42-.03,8.22,3.68,8.23,8.03,0,4.24-4.07,8.23-8.43,8.27-4.27.03-7.78-3.6-7.81-8.07-.03-4.5,3.57-8.18,8.01-8.22Z"/>
        </g>
        <g>
          <path class="cls-2" d="M169.14,388.84c-4.03,0-7.75-1.48-11.17-4.45-2.21-2.01-4.13-4.73-5.74-8.18l-2.64,2.11-3.17,2.23-3.85,2.17-4.3,2.29c-8.45,3.97-16.28,5.96-23.47,5.96-8.5,0-15.08-1.67-19.74-5-4.65-3.33-6.98-7.82-6.98-13.48s2.49-11.86,7.47-19.32c5.58-8.27,11.17-12.4,16.75-12.4,1.16,0,2.09.46,2.79,1.38.6.48,1.01,1.42,1.21,2.83,0,2.01-2.99,5.52-8.98,10.53-3.02,2.53-5.27,5.08-6.75,7.64-1.49,2.57-2.23,5.2-2.23,7.88,0,1.93.45,3.61,1.36,5.06.86,1.16,2.36,2.33,4.53,3.49,3.12,1.41,6.54,2.11,10.26,2.11,6.99,0,13.86-1.79,20.6-5.36,3.17-1.52,8-4.77,14.49-9.75l-1.43-10.17-1.51-11.74-1.13-7.58c-.91-7.7-1.36-12.92-1.36-15.65,0-1.2.1-1.91.3-2.11.91-.84,2.05-1.75,3.43-2.74,1.38-.98,2.68-1.47,3.89-1.47s2.44,2.99,3.55,8.97l2.19,16.55,1.36,16.97c0,2.01.3,4.27.91,6.8l.98,3.43,1.59,3.79.83,2.11.98,1.75c1.31,2.13,2.97,3.19,4.98,3.19h1.28v10.17h-1.28ZM179.86,282.19l-1.13,2.17-1.43,2.17-1.36,2.17-1.66,2.17-2.94,3.91-1.74,2.05-1.81,1.99c-5.84,6.34-12.05,10.83-18.64,13.48-5.49,1.93-10.42,3.31-14.79,4.15l-4.08.54-3.32.3c-1.21,0-2.86.05-4.94.15-2.09.1-3.41.15-3.96.15-.91,0-1.94-.24-3.09-.72-1.36-.72-2.04-1.83-2.04-3.31,0-2.33,1.46-3.49,4.38-3.49l8.3-.18,3.32-.18,3.25-.54c2.06-.36,3.97-.78,5.74-1.26l4.15-1.32,3.02-1.2c4.58-1.84,9.61-5.52,15.09-11.01,3.27-3.69,6.94-8.83,11.02-15.41,1.01-1.56,2.42-2.35,4.23-2.35,1.16,0,2.29.38,3.4,1.14.6.4,1.11,1.3,1.51,2.71l-.45,1.75ZM134.8,361.81c0,1.73-1.22,3.83-3.66,6.32-2.44,2.49-4.64,3.73-6.6,3.73l-2.79-1.75c-1.41-1-2.11-1.91-2.11-2.71l.23-.72.75-.96,1.51-1.44,2.64-2.23-1.21-.84-2.87-1.87c-1.66-.92-2.69-1.95-3.09-3.07,0-1.65,1.91-3.87,5.74-6.68,3.22-2.33,5.63-3.49,7.25-3.49h.45l.38.12-.76,1.5c-.15.64-.43,1.12-.83,1.44l-2.49,2.05-1.21,1.02-.76.78c.45,0,1.79-.74,4-2.23,1.51-1.08,2.82-1.78,3.93-2.11.5,0,.75.82.75,2.47-.45,1.44-1.28,2.81-2.49,4.09l-2.79,3.01c1.26.24,2.67.72,4.23,1.44,1.21.8,1.81,1.5,1.81,2.11Z"/>
          <path class="cls-2" d="M188.46,312.64l.15.9v.6c0,1.2-.38,2.11-1.13,2.71-.65.4-1.76.6-3.32.6h-3.17l-2.04-.24-5.13-.36-1.81.12c-.65,0-1.06.04-1.21.12l-1.66.36-4.45.66c-2.31,0-3.47-.78-3.47-2.35,0-.52.05-.86.15-1.02.45-2.13,2.01-3.71,4.68-4.75,2.67-1.04,6.14-1.57,10.42-1.57,1.81,0,3.17.06,4.08.18l1.96.3,1.89.54c2.21.44,3.57,1.5,4.08,3.19ZM170.42,378.66c.85,0,1.52-.04,2-.12.48-.08,1.12-.26,1.92-.54,1.26-.48,2.21-1.12,2.87-1.93l.6-1.2.68-1.75c.3-1.16.45-2.41.45-3.73l-.08-2.53-.45-2.65c-.3-1.97-.86-3.95-1.66-5.96l-2.11-6.8-1.21-3.79-1.21-3.43v-2.41c0-.76.12-1.32.38-1.68.15-.48.65-1.06,1.51-1.75,1.46-.96,3.12-1.44,4.98-1.44.91,0,1.79.36,2.64,1.08.75,1.16,1.43,2.47,2.04,3.91l2.19,5.24c3.37,11.48,5.53,18.06,6.49,19.74,1.81,4.13,3.37,6.94,4.68,8.43,1.71,2.21,3.92,3.31,6.64,3.31h.83v10.17h-1.58c-3.67,0-7.15-1.36-10.42-4.09-2.77-2.33-4.15-4.43-4.15-6.32-1.66,2.61-3.95,5.1-6.87,7.46-.91.72-2.47,1.46-4.68,2.23-1.81.48-3.72.72-5.74.72h-.75v-10.17Z"/>
          <path class="cls-2" d="M215.78,318.24l.08,1.2v1.08l-.38,1.08c-.05.32-.35.82-.91,1.5-.25.36-.53.67-.83.93-.3.26-.75.57-1.36.93l-1.21.54-1.74.48-1.74.18c-1.86,0-3.46-.45-4.79-1.35-1.33-.9-2.23-1.81-2.68-2.74l-.3-2.23c0-1,.13-1.72.38-2.17.15-.56.6-1.24,1.36-2.05.76-1.08,1.84-1.77,3.25-2.05l1.36-.24,1.59-.24c1.71,0,3.37.5,4.98,1.5,1.51.84,2.49,2.05,2.94,3.61ZM204.61,378.66c.86,0,1.52-.04,2-.12.48-.08,1.12-.26,1.93-.54,1.26-.48,2.21-1.12,2.87-1.93l.6-1.2.68-1.75c.3-1.16.45-2.41.45-3.73l-.08-2.53-.45-2.65c-.3-1.97-.86-3.95-1.66-5.96l-2.11-6.8-1.21-3.79-1.21-3.43v-2.41c0-.76.12-1.32.38-1.68.15-.48.65-1.06,1.51-1.75,1.46-.96,3.12-1.44,4.98-1.44.91,0,1.79.36,2.64,1.08.75,1.16,1.43,2.47,2.04,3.91l2.19,5.24c3.37,11.48,5.53,18.06,6.49,19.74,1.81,4.13,3.37,6.94,4.68,8.43,1.71,2.21,3.92,3.31,6.64,3.31h.83v10.17h-1.58c-3.67,0-7.15-1.36-10.42-4.09-2.77-2.33-4.15-4.43-4.15-6.32-1.66,2.61-3.95,5.1-6.87,7.46-.91.72-2.46,1.46-4.68,2.23-1.81.48-3.72.72-5.74.72h-.76v-10.17Z"/>
          <path class="cls-2" d="M255.1,399.61l.15,1.62c0,2.21-1.26,3.31-3.77,3.31h-1.21l-1.74-.12-6.64-.6-2.64.36-5.59.9c-2.11,0-3.17-.88-3.17-2.65l.08-.72c.3-2.17,1.65-3.78,4.04-4.84,2.39-1.06,5.6-1.6,9.62-1.6l3.7.18,1.58.24,1.81.54c2.01.6,3.27,1.72,3.77,3.37ZM238.8,378.66c2.57,0,4.58-.44,6.04-1.32,2.57-1.57,3.85-4.41,3.85-8.55v-1.87l-.15-.78-1.13-3.73-3.47-10.23-4.53-12.76-.08-.6.23-1.08c.15-.44.73-.74,1.74-.9.3,0,.96.24,1.96.72.55.32,1.38,1.68,2.49,4.09l1.43,3.31c.3-.48.45-1.1.45-1.87,0-.52-.15-1.38-.45-2.59l-.91-3.07c-.15-1,.3-1.5,1.36-1.5.25,0,.73.3,1.43.9,1.76,2.69,3.34,5.48,4.75,8.37l1.43,3.43,2.34,5.9,1.43,6.68c.2,1.29.35,2.38.45,3.28.1.9.15,1.8.15,2.68,0,7.7-2.34,13.48-7.02,17.33-1.61,1.28-3.65,2.39-6.11,3.31-2.31.68-4.88,1.02-7.7,1.02v-10.17Z"/>
          <path class="cls-2" d="M290.83,373.13c0,5.38-1.86,10.41-5.58,15.11-1.86,2.33-3.8,4.01-5.81,5.06-2.01,1.16-4.05,1.75-6.11,1.75-1.21,0-2.52-.5-3.92-1.5-1.26-1-1.89-2.29-1.89-3.85,0-.24.53-.9,1.58-1.99.75-.72,2.36-2.03,4.83-3.91,4.33-3.25,6.49-8.39,6.49-15.41,0-4.49-1.08-9.57-3.25-15.23-1.06-2.89-1.86-5.2-2.42-6.92-.55-1.72-.83-2.93-.83-3.61,0-1.52.3-2.89.91-4.09.65-.88,2.01-1.32,4.08-1.32,2.52,0,5.21,4.25,8.08,12.76l1.51,5.9,1.36,6.26c.65,4.81.98,8.49.98,11.01ZM281.1,311.68c1.21,1.08,1.81,2.45,1.81,4.09,0,1.08-.18,1.92-.53,2.5-.35.58-1.06,1.27-2.11,2.08l-2.04.9c-.91.28-1.89.42-2.94.42-2.26,0-4.13-.56-5.58-1.69-.4-.36-.91-1-1.51-1.93-.3-.68-.45-1.44-.45-2.29,0-1.72.8-3.31,2.42-4.75l2.87-1.2,1.36,3.43c.7,2.29,1.69,3.49,2.94,3.61l-.91-3.97v-3.07l2.64.84,1.21.42.83.6Z"/>
          <path class="cls-2" d="M347.02,388.84h-2.26l-1.81-.3-1.66-.24-1.36-.24-.45-.18-1.06-.42-.3,1.08-.3.72-.45.84c-.1.24-.3.52-.6.84l-2.64,3.07c-1.06,1.28-2.06,2.33-3.02,3.13-.75.84-1.66,1.62-2.72,2.35-2.21,1.65-4.45,2.47-6.72,2.47-1.21,0-2.58-.49-4.11-1.47-1.54-.98-2.43-1.9-2.68-2.74l1.43-1.26,4.6-3.79c4.02-3.29,6.04-5.98,6.04-8.06-6.79-1.52-13.51-5.86-20.15-13-5.38-5.94-8.08-12.38-8.08-19.32,0-3.97,1.13-7.46,3.4-10.47,2.26-3.01,5.11-4.51,8.53-4.51,4.28,0,7.85.82,10.72,2.47l2.34,1.62,4.38,3.43c0-.8-.53-2.03-1.58-3.67l-1.36-1.57-.83-1.08c6.79,2.65,11.5,7.91,14.11,15.77.75,2.37,1.36,5.12,1.81,8.25.45,3.13.68,6.48.68,10.05v1.81l-.15.84v2.23c.75.36,1.69.66,2.79.9l2.11.3h2.26v10.17h-.91ZM329.58,374.81l.15-3.43v-1.8c0-.8.05-1.32.15-1.57,0-1.56-.15-3.01-.45-4.33-.55-2.65-1.21-4.73-1.96-6.26-.6-1.8-1.46-3.47-2.57-5-2.52-3.89-5.41-5.84-8.68-5.84-1.81,0-3.52.62-5.13,1.87l-1.66,2.05c-.25.72-.43,1.44-.53,2.17,0,3.25,1.99,7.26,5.96,12.04,4.33,5.3,9.23,8.67,14.72,10.11Z"/>
          <path class="cls-2" d="M394.64,288.39c-3.42,5.98-7.35,11.22-11.77,15.71-5.69,5.9-11.9,10.11-18.64,12.64-4.88,1.77-9.58,3.17-14.11,4.21l-6.79.72-5.36.3h-3.62l-1.43-.24c-.45-.12-1.11-.42-1.96-.9-.91-.6-1.46-1.58-1.66-2.95,0-2.25,1.71-3.37,5.13-3.37,5.38,0,9.71-.36,12.98-1.08,3.27-.72,7.35-2.25,12.23-4.57,4.88-2.33,9.84-6.22,14.87-11.68,3.22-3.65,6.69-8.61,10.42-14.87.6-1.32,1.79-1.99,3.55-1.99,1.51,0,3.07.62,4.68,1.87,1.41,1.24,2.11,2.61,2.11,4.09,0,.64-.05,1-.15,1.08l-.45,1.02ZM347.92,378.66h1.96c4.68,0,8.43-1.72,11.25-5.18,2.06-2.73,3.09-5.38,3.09-7.95v-1.68l-.08-2.41c0-.84-.1-1.57-.3-2.17l-.23-1.87-.45-1.93-1.13-3.19c-2.06-5.74-5.64-10.69-10.72-14.87l-1.28-1.2-.75-1.26-.6-2.89c0-2.05.73-3.77,2.19-5.18,1.11-1.12,2.16-1.68,3.17-1.68l.98.18c5.68,2.81,10.57,8.1,14.64,15.89,1.46,3.25,2.69,6.72,3.7,10.41.45,1.85.8,3.67,1.06,5.48.25,1.81.38,3.65.38,5.54,0,4.66-.83,8.49-2.49,11.5l-1.89,3.49-1.21,2.23c-1.06,1.68-2.47,3.17-4.23,4.45-3.88,2.97-8.83,4.45-14.87,4.45h-2.19v-10.17Z"/>
        </g>
      </g>
    </g>
    <g>
      <path class="cls-2" d="M148.38,266.41c-30.41.48-60.84.45-91.26.38-9.02-.02-18.05-.8-27.05-1.49-3.04-.23-6.05-1.15-9.02-1.98-7.7-2.15-12.89-7.05-15.72-14.55-1.79-4.74-2.78-9.62-3.14-14.64-1.56-22-2.35-44.03-.97-66.07.32-5.14,1.24-10.27,2.24-15.34.85-4.32,3.44-7.48,7.19-10.04,6.92-4.72,14.72-6.73,22.75-7.9,39.13-5.71,78.43-9.51,118.01-10.17,17.85-.3,35.68-1.49,53.53-1.84,35.98-.71,71.96-1.18,107.95-.3,27.38.67,54.78.67,82.15,1.56,18.33.6,36.63,2.19,54.94,3.43,2.51.17,5.02.68,7.48,1.27,6.64,1.59,11.35,5.56,14.23,11.77,3.51,7.57,5.56,15.54,6.54,23.8,2,16.89,1.43,33.78-.22,50.65-.79,8.11-1.79,16.21-3.07,24.25-1.76,11.05-8.86,17.81-18.82,21.82-8.71,3.5-17.94,4.53-27.24,4.52-16.86,0-33.72-.2-50.58-.46-34.33-.54-68.65-1.23-102.98-1.74-13.17-.19-97.78,2.6-126.92,3.06Z"/>
      <path class="cls-1" d="M217.76,64.71c-1.11-2.71-2.64-5.13-3.06-7.73-1.64-10.08,4.7-19.09,15.23-21.74,8.27-2.08,16.04-.4,22.96,4.41,6.97,4.85,9.07,14.4,5.36,22.55-.31.69-.65,1.37-1.08,2.29.77.05,1.34.1,1.92.11,14.54.37,29.1.41,43.62,1.18,32.17,1.7,64.16,5.07,95.38,13.45,15.95,4.28,31.69,9.32,46.75,16.19,3.9,1.78,7.65,3.9,11.37,6.04,3.24,1.86,5.88,4.46,7.9,7.62,1.41,2.2,2.11,4.6,1.71,7.23-.71,4.68-4.01,7.65-8.74,7.52-2.9-.08-5.78-.73-8.69-.98-7.52-.66-15.03-1.33-22.56-1.84-25.89-1.75-51.77-3.74-77.69-5.05-20.13-1.02-40.31-1.49-60.47-1.6-26.72-.14-53.45-.06-80.16.61-25.22.63-50.42,2.2-75.63,3.28-12.72.54-25.44.87-38.16,1.34-18.97.7-37.77,2.86-56.4,6.6-5.59,1.12-11.36,1.48-17.06,1.88-2.12.15-4.39-.32-6.44-.98-2.5-.81-3.65-2.81-3.56-5.53.2-5.87,2.26-10.84,6.82-14.65,5.07-4.23,10.75-7.47,16.7-10.27,16.06-7.56,33.08-11.9,50.37-15.54,35.05-7.38,70.54-11.55,106.14-14.93,8.17-.78,16.39-1.01,24.58-1.47,1.03-.06,2.08,0,2.89,0Z"/>
    </g>
    <g>
      <path class="cls-3" d="M100.43,184.91c7.43-10.03,26.9-35.87,26.9-35.75h12.39l-32.92,37.88c1.53-.24,2.95-.24,4.25-.24,11.45,0,14.63,5.43,14.63,12.63,0,9.68-5.78,22.42-5.78,29.85,0,3.54,1.77,6.73,4.6,7.79-4.96,1.42-8.85,2.01-11.68,2.01-7.67,0-9.2-4.01-9.2-7.91,0-7.79,6.25-22.07,6.25-31.03,0-4.72-1.77-7.91-7.08-7.91-1.06,0-2.36.12-3.89.47l-9.44,44.37h-16.99l17.11-80.24c-10.38,4.37-16.52,13.33-16.52,25.84,0,6.02,1.53,6.96,1.65,8.02-8.14,0-12.62-2.95-12.62-11.45,0-15.69,21.71-30.68,41.42-30.68,1.65,0,3.19.12,4.72.24l-7.79,36.11Z"/>
      <path class="cls-3" d="M176.77,194.23c.71.71,1.77,1.06,3.42,1.06,5.55,0,8.02-4.01,12.39-5.78l.47,2.48c-3.66,4.6-9.79,8.5-16.64,10.38-2.24,23.72-15.1,35.4-26.9,35.4-12.63,0-18.05-5.31-18.05-19.35,0-29.03,14.75-41.53,31.03-41.53,11.21,0,14.04,8.73,14.28,17.35ZM167.68,203.55c-3.42,0-4.96-2.48-4.96-5.31,0-3.42,2.01-7.08,5.19-8.26-.35-3.89-1.65-6.14-4.96-6.14-11.09,0-15.81,24.07-15.81,33.51,0,7.08,3.3,8.97,7.91,8.97,7.2,0,11.21-11.33,12.62-22.77Z"/>
      <path class="cls-3" d="M208.51,226.44c0-5.55,3.78-7.2,7.55-7.2,3.3,0,5.54,3.07,5.54,6.84,0,6.02-4.37,10.97-13.8,10.97h-31.74l31.03-54.04c-2.71-.12-5.9-.24-8.61-.24-3.66,0-6.49.47-6.49,2.6,1.06,0,2.01,1.42,2.01,3.42,0,5.55-3.66,7.08-7.43,7.08-3.3,0-5.55-3.07-5.55-6.84,0-6.02,4.37-10.97,13.81-10.97h31.74l-31.03,54.04c2.71.12,5.78.24,8.61.24,3.66,0,6.49-.47,6.49-2.6-1.06,0-2.12-1.3-2.12-3.3Z"/>
      <path class="cls-3" d="M253,178.06l-8.5,40.12c-.24,1.3-.47,2.6-.47,3.66,0,2.6,1.18,4.48,5.9,4.48s10.86-6.61,15.58-10.38h4.01c-5.43,5.43-18.76,21.12-27.96,21.12s-14.75-4.01-14.75-12.86c0-1.77.24-3.78.71-6.02l8.5-40.12h16.99ZM247.57,153.05c5.19,0,9.44,4.25,9.44,9.44s-4.25,9.32-9.44,9.32-9.32-4.13-9.32-9.32,4.13-9.44,9.32-9.44Z"/>
      <path class="cls-3" d="M307.04,218.18c-.35,1.3-.59,2.6-.59,3.78,0,2.6,1.3,4.37,5.9,4.37s6.49-3.66,11.21-7.43h4.01c-5.43,5.43-14.4,18.17-23.6,18.17s-14.63-4.01-14.63-12.86c0-1.89.24-3.78.71-6.02l4.48-21.24c.24-1.06.35-2.12.35-3.07,0-4.25-2.24-6.96-5.43-6.96-2.83,0-4.96.83-7.43,2.48l-10.03,47.67h-16.99l12.51-59h16.99l-1.42,6.37c4.84-3.54,10.27-6.37,15.46-6.37,6.37,0,13.57,6.84,13.57,14.75,0,.94,0,1.89-.24,2.83l-4.84,22.54Z"/>
      <path class="cls-3" d="M348.57,159.42s-1.77,8.02-4.01,18.64h7.08l-.94,4.72h-7.08c-8.14,37.29-8.02,38.47-8.02,39.06,0,2.71,1.18,4.48,5.9,4.48s10.86-6.61,15.58-10.38h4.01c-5.43,5.43-18.76,21.12-27.96,21.12s-14.63-4.01-14.63-12.86c0-6.25,6.13-31.27,8.14-41.42h-3.89l.94-4.72h3.89l3.54-16.28,17.46-2.36Z"/>
      <path class="cls-3" d="M409.22,178.06l-23.48,15.93c.94-.12,1.77-.24,2.71-.24,6.49,0,13.69,7.08,13.69,14.87,0,.83-.12,1.77-.35,2.71l-1.53,6.84c-.35,1.65-.94,3.42-.94,4.96,0,2.01.94,3.42,4.48,3.42.83,0,2.12,0,3.07-.35-3.3,10.15-8.26,10.86-12.27,10.86-8.38,0-12.04-5.55-12.04-12.98,0-1.89.24-3.89.71-5.9l1.18-5.55c.12-.83.24-1.77.24-2.71,0-3.78-1.65-7.32-5.31-7.32-2.83,0-4.96.83-7.31,2.48l-6.84,31.98h-16.99l17.11-80.24,17.46-2.36-8.73,41.18c8.73-6.96,22.42-17.7,22.42-17.58h12.74Z"/>
    </g>
  </g>
  <path class="cls-3" d="M250.79,93.25c.04-.36.87-.34,1.2-.37,3.17-.3,6.35-.58,9.52-.85,2.25-.19,4.51-.32,6.76-.53.58-.05,1.16-.24,1.71-.46.56-.23,1.04-.61,1.01-1.32-.03-.66-.46-1.06-1.04-1.2-1.19-.3-2.4-.67-3.61-.74-3.62-.21-7.24-.28-10.86-.41-1.46-.05-4.45-.05-4.46-.84,0-.79,2.48-.86,3.67-.93,3.64-.2,7.29-.3,10.93-.46.92-.04,1.85-.12,2.77-.22.35-.04.76-.11,1.01-.31.34-.28.71-.68.81-1.09.13-.55-.28-.99-.81-1.16-.66-.22-1.33-.43-2.01-.51-3.75-.45-7.5-.91-11.26-1.25-2.68-.24-5.39-.3-8.08-.4-.66-.02-1.33.11-1.99.24-2.22.44-3.76,1.7-4.48,3.89-.14.42-.27.83-.36,1.26-.42,1.96-.41,1.99-2.48,1.89-5.03-.25-10.06-.62-15.09-.8-6.51-.23-13.01.07-19.46,1.08-1.36.21-2.71.63-3.99,1.13-.74.28-1.44.82-1.99,1.4-1.29,1.35-1.12,3.36.47,4.34,1.09.67,2.38,1.23,3.63,1.35,2.75.27,5.55.45,8.3.27,6.41-.42,12.81-1.04,19.21-1.66,3.48-.33,6.94-.82,10.42-1.24.25-.03.51-.05.85-.08-.08.59-.15,1.14-.21,1.68-.24,2.29.57,3.82,2.79,4.41,1.76.47,3.65.7,5.48.68,5.16-.05,10.33-.23,15.49-.46,1.39-.06,2.77-.5,4.14-.81.31-.07.6-.3.85-.51.82-.73.68-1.75-.34-2.15-.56-.23-1.19-.35-1.8-.4-3.84-.36-7.69-.64-11.52-1.03-1.37-.14-2.72-.49-4.07-.79-.32-.07-1.15-.27-1.11-.63Z"/>
</svg>